<svg width="8" height="7" viewBox="0 0 8 7" fill="none" xmlns="http://www.w3.org/2000/svg">
<path d="M7.73444 1.96373L6 3.5L4.08299 0.55965C4.0166 0.487646 3.91701 0.487646 3.88382 0.523648C3.88382 0.523648 3.88382 0.523648 3.85062 0.55965L2 3.5L0.232365 1.96373C0.165975 1.89173 0.06639 1.89173 0.033195 1.96373C0 1.99974 0 2.03574 0 2.10774L0.33195 6.35599C0.33195 6.428 0.39834 6.5 0.497925 6.5H7.50207C7.56846 6.5 7.63485 6.428 7.66805 6.35599L8 2.10774C7.9668 1.99973 7.90041 1.92773 7.83402 1.92773C7.80083 1.92773 7.76763 1.92773 7.73444 1.96373Z" fill="white"/>
</svg>
