<svg width="18" height="20" viewBox="0 0 18 20" fill="none" xmlns="http://www.w3.org/2000/svg">
<path fill-rule="evenodd" clip-rule="evenodd" d="M18 15.7931L15.9396 11.8906V6.09756C15.9396 2.69961 12.8002 0 9 0C5.19979 0 2.06041 2.69961 2.06041 6.09756V11.8906L0 15.7931V17.0732L5.84705 17.0732C5.97126 18.7104 7.33543 20 9 20C10.6646 20 12.0287 18.7104 12.1529 17.0732L18 17.0732V15.7931ZM13.9936 6.09756V12.4704L15.243 15.1219H12.4054C12.1802 15.1162 10.9459 15.1219 10.9459 15.1219L9.97297 15.12C9.97297 15.12 9.12968 15.1219 9 15.1219C8.87032 15.1219 8.15339 15.1209 8.02703 15.12L7.05405 15.1199C6.81178 15.118 6.07225 15.1162 5.84705 15.1219H2.75702L4.00636 12.4704V6.09756C4.00636 4.01742 6.01819 1.95122 9 1.95122C11.9818 1.95122 13.9936 4.01742 13.9936 6.09756ZM7.91685 17.0737L7.93423 17.0732H10.0658L10.0832 17.0737C10.1217 17.0749 10.1576 17.0764 10.1909 17.078C10.0764 17.6322 9.58667 18.0488 9 18.0488C8.41333 18.0488 7.92364 17.6322 7.8091 17.078C7.84243 17.0764 7.87831 17.0749 7.91685 17.0737Z" fill="#222222"/>
</svg>
