<svg width="20" height="21" viewBox="0 0 20 21" fill="none" xmlns="http://www.w3.org/2000/svg">
<path fill-rule="evenodd" clip-rule="evenodd" d="M15 8.5008C15.0001 12.091 12.09 15.0011 8.50043 15.001C4.91086 15.0008 2.0006 12.0906 2.00049 8.5004C2.00038 4.91022 4.91046 2.00014 8.50003 2.00024C12.0896 2.00035 14.9999 4.91061 15 8.5008ZM13.7378 15.1962C12.2945 16.3269 10.4762 17.001 8.50049 17.001C3.80621 17.0008 0.000631349 13.195 0.000488285 8.50034C0.00034523 3.80573 3.80569 0.000101879 8.49997 0.000244145C13.1942 0.000386418 16.9998 3.80624 17 8.50086C17 10.4989 16.3108 12.3359 15.1571 13.787L19.2517 17.881L19.9589 18.588L18.5448 20.0024L17.8376 19.2953L13.7378 15.1962Z" fill="black"/>
</svg>
