<svg width="18" height="18" viewBox="0 0 18 18" fill="none" xmlns="http://www.w3.org/2000/svg">
<rect width="18" height="18" rx="4" fill="#222222"/>
<mask id="mask0_887_1137" style="mask-type:alpha" maskUnits="userSpaceOnUse" x="2" y="5" width="4" height="8">
<path fill-rule="evenodd" clip-rule="evenodd" d="M2.625 5.2041H5.55703V12.8917H2.625V5.2041Z" fill="white"/>
</mask>
<g mask="url(#mask0_887_1137)">
<path fill-rule="evenodd" clip-rule="evenodd" d="M4.55971 8.45873C4.56821 8.49528 4.60221 8.5348 4.55121 8.56668C4.49086 8.6045 4.51381 8.5008 4.46621 8.5161C4.40501 8.57008 4.51551 8.6266 4.45984 8.6861C4.32554 8.64148 4.18104 8.63808 4.04504 8.67633C4.02676 8.66868 4.00764 8.6538 3.98936 8.65465C3.88694 8.6589 3.87291 8.56285 3.82616 8.50845C3.79981 8.47743 3.82616 8.42685 3.86016 8.4022C3.90096 8.36778 3.92009 8.3138 3.90946 8.26153C3.90649 7.97763 3.91414 7.69458 3.88609 7.41153C3.87929 7.34438 3.91796 7.2751 3.87886 7.2088L3.88481 7.16375V7.11318C3.88821 7.10595 3.88821 7.09745 3.88481 7.09023L3.88141 7.015C3.88311 7.0031 3.87674 6.99163 3.86526 6.98738L3.86866 6.9504C3.88141 6.91725 3.88566 6.88198 3.88099 6.8467V6.81908V6.74853C3.85549 6.65078 3.89161 6.5492 3.85379 6.45103C3.82999 6.38728 3.89629 6.33925 3.90691 6.28103C4.00934 6.25128 4.10836 6.2925 4.20441 6.2704C4.23799 6.28443 4.27284 6.29335 4.30896 6.29803C4.34551 6.29803 4.39141 6.25553 4.41521 6.30738C4.43901 6.35923 4.47556 6.4285 4.45049 6.47993C4.41734 6.58405 4.40799 6.69498 4.42286 6.80335C4.41819 6.94063 4.41564 7.0796 4.42286 7.21688C4.43901 7.47655 4.43009 7.73708 4.45389 7.99675C4.44964 8.0622 4.44029 8.1268 4.42584 8.19098C4.41564 8.26578 4.42839 8.34228 4.46324 8.40943C4.50319 8.37118 4.47939 8.32103 4.49511 8.27853C4.51891 8.25983 4.55249 8.25983 4.57629 8.27853C4.54696 8.33378 4.54059 8.3988 4.55886 8.45873H4.55971ZM4.3376 8.80177C4.3291 8.75502 4.3614 8.74482 4.3869 8.7121C4.40815 8.77925 4.38903 8.79922 4.33675 8.80135L4.3376 8.80177ZM4.10137 8.75288C4.15832 8.70273 4.18637 8.74821 4.22292 8.76223C4.18127 8.78603 4.14344 8.80261 4.10052 8.75288H4.10137ZM3.97422 8.7754C3.96997 8.74352 3.9925 8.7329 4.0146 8.72312C4.04902 8.73757 4.09067 8.74565 4.08557 8.79792C4.04562 8.80132 4.0044 8.81322 3.9738 8.7754H3.97422ZM3.77467 8.72477C3.80144 8.7354 3.83672 8.7286 3.85967 8.76727C3.81504 8.77407 3.76914 8.79702 3.77254 8.72477H3.77467ZM5.14372 5.35841C5.09229 5.38603 5.07359 5.36691 5.05277 5.32908C5.09229 5.31038 5.11354 5.32526 5.14372 5.35628V5.35841ZM5.25516 5.4043C5.21776 5.42512 5.21521 5.3975 5.19523 5.38602C5.23603 5.36222 5.24283 5.38347 5.25516 5.40217V5.4043ZM3.71128 8.41714C3.7355 8.50001 3.79925 8.54931 3.7984 8.62156C3.6743 8.51616 3.66368 8.49491 3.7117 8.41501L3.71128 8.41714ZM2.89722 10.5298C2.85472 10.4902 2.85472 10.4367 2.80924 10.384C2.92059 10.3899 2.92272 10.3946 2.89764 10.5276L2.89722 10.5298ZM2.84715 7.29981C2.81017 7.07328 2.81612 7.04056 2.88965 7.02738C2.88965 7.09453 2.89262 7.16253 2.88965 7.23011C2.88667 7.25136 2.86457 7.27133 2.84757 7.29981H2.84715ZM5.54584 5.9857V5.94065C5.56369 5.83397 5.56029 5.72475 5.53521 5.61977C5.54499 5.56665 5.52926 5.51182 5.49271 5.47187C5.47061 5.39325 5.41409 5.32907 5.33929 5.2972C5.15696 5.23302 4.96274 5.21262 4.77106 5.23727C4.68096 5.24789 4.58959 5.24449 4.50034 5.22622C4.44254 5.20539 4.38006 5.20114 4.32014 5.21389C4.24406 5.22707 4.16671 5.23132 4.08936 5.22622C3.95931 5.22324 3.83011 5.21219 3.69964 5.21432C3.44888 5.23132 3.19728 5.22919 2.94738 5.20709C2.82966 5.19009 2.77356 5.24577 2.76931 5.36732C2.76676 5.43235 2.76208 5.4978 2.76548 5.56282C2.77993 5.83822 2.79608 6.11532 2.78758 6.38987C2.78121 6.58665 2.77143 6.7847 2.77143 6.98062C2.77143 7.18547 2.77143 7.39075 2.77441 7.59517C2.77993 7.92072 2.76123 8.24627 2.78503 8.57522C2.70343 8.5969 2.64776 8.67255 2.65201 8.75712C2.61503 9.0627 2.61588 9.3721 2.65541 9.67767C2.65541 9.68447 2.66348 9.69 2.66986 9.69892C2.69323 9.69892 2.69791 9.65642 2.72638 9.66577C2.75911 9.75077 2.87386 9.79922 2.84411 9.91227C2.81691 9.93437 2.80713 9.87742 2.77398 9.9059C2.76676 10.0593 2.76803 10.2123 2.77781 10.3657C2.79821 10.5064 2.80246 10.6488 2.79013 10.7907C2.77101 11.0275 2.76421 11.2655 2.77058 11.5035C2.77058 11.6161 2.76676 11.7291 2.76761 11.8435V12.6085C2.76761 12.6297 2.77101 12.6556 2.78971 12.662C2.86196 12.6858 2.83646 12.7806 2.90063 12.8082C2.88321 12.9166 2.96693 12.8898 3.01751 12.8864C3.17391 12.8754 3.33031 12.8894 3.48501 12.889C3.60528 12.9 3.72641 12.8754 3.83223 12.8176C3.77486 12.7326 3.89684 12.713 3.88706 12.645C3.90661 12.5821 3.91171 12.5158 3.90193 12.4508L3.90448 12.3998C3.90916 12.3849 3.90321 12.3688 3.89004 12.3607C3.89004 12.1801 3.88621 11.9986 3.89004 11.818C3.89004 11.7402 3.85264 11.6607 3.87049 11.5902C3.90831 11.3726 3.91936 11.1511 3.90279 10.9314C3.90279 10.6454 3.88069 10.3589 3.86751 10.0725C3.89088 10.0619 3.88876 10.0436 3.87729 10.0266C3.82373 9.9467 3.86199 9.86892 3.87431 9.79412C3.92574 9.77627 3.98141 9.77287 4.03454 9.7852C4.02519 9.75205 4.01839 9.71847 4.01456 9.68447C4.01839 9.71847 4.02519 9.75205 4.03454 9.7852C4.20879 9.7852 4.38304 9.7852 4.55686 9.78222C4.68989 9.78817 4.82291 9.7835 4.95509 9.76777L4.95806 9.76522C4.97294 9.77712 4.98569 9.77032 4.99801 9.76097C5.08854 9.75927 5.17779 9.73845 5.25981 9.69977C5.36479 9.66917 5.44851 9.59012 5.48506 9.48727C5.54031 9.34745 5.56326 9.19742 5.55264 9.04782C5.54711 8.87782 5.53861 8.70782 5.53776 8.53782C5.53776 8.40395 5.56114 8.27305 5.55604 8.13875C5.54541 7.85485 5.55604 7.57095 5.53904 7.28662C5.52799 7.1383 5.53096 6.98912 5.54839 6.84122C5.55646 6.79277 5.55646 6.74347 5.54839 6.69545L5.55221 6.10937C5.55944 6.06815 5.55689 6.02565 5.54584 5.9857Z" fill="#FFB918"/>
</g>
<path fill-rule="evenodd" clip-rule="evenodd" d="M14.9773 12.3092C15.0062 12.3585 15.0206 12.4155 15.0177 12.4729C14.9879 12.4389 14.9837 12.4231 14.9773 12.3071V12.3092ZM14.9411 11.8512C14.9364 11.8448 14.9288 11.8367 14.9301 11.8325C14.9381 11.8065 14.9488 11.7819 14.9683 11.73C14.9717 11.8112 14.9717 11.8112 14.9407 11.849L14.9411 11.8512ZM14.9377 8.48007C14.9377 8.5179 14.9309 8.52045 14.8901 8.52257C14.8706 8.48092 14.9207 8.48815 14.9373 8.47837L14.9377 8.48007ZM14.9067 8.33346L14.7644 8.34876C14.8069 8.29903 14.8562 8.31178 14.9067 8.33133V8.33346ZM12.5207 5.63467C12.5355 5.63467 12.5326 5.65252 12.5343 5.66357C12.5071 5.69375 12.4731 5.71755 12.4357 5.73327C12.4595 5.6946 12.4484 5.62702 12.5202 5.63085L12.5207 5.63467ZM12.6875 5.33719C12.6875 5.38989 12.6773 5.40689 12.6455 5.40519C12.6387 5.37587 12.6518 5.36142 12.6871 5.33634L12.6875 5.33719ZM13.3484 10.5817C13.3743 10.6055 13.3943 10.6357 13.4053 10.6693C13.3688 10.6659 13.3411 10.634 13.3441 10.597C13.345 10.5915 13.3458 10.586 13.3479 10.5809L13.3484 10.5817ZM13.9429 11.8261C14.0105 11.8222 13.9782 11.9021 14.0381 11.8966C13.9994 11.9548 13.9506 11.9357 13.9183 11.9646C13.8851 11.9285 13.8872 11.8724 13.9234 11.8392C13.9289 11.8333 13.9357 11.829 13.9425 11.8252L13.9429 11.8261ZM14.1641 11.3233C14.1496 11.2583 14.1518 11.2014 14.2244 11.1699C14.2431 11.2141 14.2657 11.2566 14.2916 11.2974C14.3243 11.3399 14.2087 11.362 14.2992 11.4139C14.2185 11.4177 14.2019 11.4564 14.2147 11.5146C14.176 11.4946 14.2049 11.4423 14.1692 11.4211C14.17 11.3879 14.1683 11.3552 14.1637 11.3225L14.1641 11.3233ZM14.9104 5.46293C14.9423 5.488 14.9584 5.52838 14.9525 5.56918C14.9113 5.52965 14.9002 5.5033 14.9104 5.4608V5.46293ZM14.9911 5.94198C14.9112 5.84338 14.8998 5.76008 14.952 5.68443C15.0294 5.76263 14.9312 5.86463 14.9907 5.94156L14.9911 5.94198ZM15.1396 9.26035C15.1541 9.01853 15.1158 8.77628 15.1396 8.53318C15.1528 8.48133 15.1452 8.42608 15.1192 8.37933C15.0827 8.3262 15.0585 8.26543 15.0495 8.2021C14.9008 8.2259 14.7554 8.20593 14.6101 8.2174C14.4711 8.19913 14.3313 8.23908 14.1923 8.2174C14.1018 8.2106 14.0121 8.23695 13.9182 8.22165C13.8816 8.27435 13.8587 8.33513 13.8523 8.3993C13.834 8.64495 13.8302 8.89018 13.8323 9.13625C13.8323 9.183 13.8408 9.21488 13.885 9.23315C13.919 9.24718 13.9445 9.28755 13.9739 9.29223C14.0589 9.30668 14.0623 9.37 14.0742 9.43078C14.0788 9.45458 14.0814 9.4788 14.081 9.50303C14.0737 9.65943 14.0776 9.81668 14.0924 9.97265C14.1001 10.0169 14.098 10.0619 14.0873 10.1057C14.0627 10.192 14.0686 10.2838 14.1052 10.3658C14.0873 10.4147 14.078 10.4669 14.0771 10.5192C14.0831 10.8231 14.0895 11.1274 14.0958 11.4317C14.0958 11.4653 14.1201 11.4674 14.1464 11.4657C14.1332 11.5141 14.1269 11.5643 14.1273 11.6144L14.1243 11.6633C14.1192 11.7186 14.0699 11.7509 14.0597 11.7942C13.8957 11.7513 13.7252 11.7398 13.5569 11.7606C13.5234 11.7062 13.4507 11.7364 13.4022 11.6943C13.4715 11.5711 13.5013 11.4296 13.4872 11.2889C13.4928 11.1112 13.4821 10.9332 13.4872 10.7551C13.4957 10.404 13.4787 10.053 13.4838 9.70193C13.5004 9.55658 13.4996 9.41038 13.4809 9.26545V9.2153C13.4983 9.08483 13.4953 8.95265 13.4732 8.82303C13.4779 8.81665 13.4792 8.80815 13.4762 8.80093C13.4881 8.75885 13.4855 8.7138 13.4694 8.67343C13.477 8.66025 13.477 8.6441 13.4694 8.63093C13.4983 8.53445 13.5038 8.43245 13.4855 8.33343L13.4804 8.1885C13.4953 8.11498 13.4953 8.03933 13.4804 7.9658C13.4877 7.942 13.4877 7.91608 13.4804 7.89228C13.4855 7.8315 13.4804 7.77073 13.4656 7.71208C13.4736 7.69253 13.4724 7.67085 13.463 7.65215L13.4668 7.64578C13.4651 7.64153 13.4626 7.63728 13.46 7.63388C13.4443 7.62028 13.4367 7.59945 13.4409 7.57948C13.4605 7.4422 13.4685 7.30365 13.4647 7.1651C13.4702 7.11453 13.4226 7.07585 13.4422 7.02613C13.4626 6.9492 13.4656 6.86888 13.4528 6.79068C13.4566 6.78388 13.4566 6.77538 13.4528 6.76858C13.4566 6.74945 13.4532 6.7299 13.443 6.71333C13.4554 6.6755 13.4605 6.63555 13.4583 6.59603C13.4668 6.5565 13.46 6.51528 13.4392 6.48085C13.3997 6.39798 13.401 6.30193 13.4418 6.22033C13.5178 6.19568 13.6003 6.19185 13.6781 6.21055L13.6849 6.21353L13.6887 6.20843C13.6985 6.22118 13.7176 6.22373 13.7303 6.21353C13.732 6.21183 13.7337 6.21013 13.7354 6.20843C13.84 6.20885 13.945 6.1995 14.0478 6.1808C14.0567 6.1978 14.0771 6.20588 14.095 6.19865L14.1014 6.20333H14.1099C14.1073 6.23053 14.1196 6.22245 14.1332 6.2131C14.1358 6.22628 14.1464 6.22755 14.157 6.2267C14.1651 6.24625 14.1664 6.2692 14.1868 6.28238C14.1498 6.40138 14.1468 6.52845 14.1783 6.64915L14.1757 6.69505C14.1689 6.7299 14.1519 6.76603 14.1876 6.79535C14.2556 6.86973 14.1175 6.91988 14.1698 6.99978C14.2225 7.0172 14.2782 7.06183 14.3428 7.05163C14.4388 7.04185 14.5357 7.0376 14.6322 7.03845C14.7644 7.0971 14.8931 6.99298 15.0257 7.04908C15.0423 7.00233 15.0563 6.95473 15.0682 6.9067C15.0801 6.6942 15.081 6.47618 15.0806 6.2624C15.0738 6.0652 15.0784 5.86758 15.0946 5.6708C15.1137 5.53905 15.0661 5.40645 14.9675 5.31677C14.8277 5.1982 14.6475 5.1387 14.4647 5.1523C14.2726 5.15655 14.0822 5.15995 13.8884 5.16122C13.5914 5.16122 13.2964 5.154 13.0006 5.15655C12.9007 5.15102 12.8013 5.17057 12.7108 5.21307C12.6258 5.2662 12.5539 5.33802 12.5004 5.42302C12.4158 5.51652 12.3729 5.64062 12.381 5.76643C12.3652 5.87183 12.3589 5.9785 12.361 6.08518C12.3414 6.2471 12.3338 6.41073 12.338 6.57393C12.3304 6.67933 12.3372 6.78473 12.3567 6.88885C12.3669 7.05418 12.3818 7.21993 12.378 7.38483C12.3742 7.54973 12.395 7.70485 12.378 7.86465C12.3584 8.0491 12.4201 8.22845 12.3963 8.41715C12.3763 8.57313 12.4613 8.7376 12.3784 8.8957C12.3754 8.90165 12.3784 8.91185 12.3784 8.9195C12.3737 9.0657 12.3805 9.21233 12.398 9.35768C12.4043 9.3938 12.4043 9.43078 12.398 9.4669C12.3644 9.66495 12.3491 9.86598 12.3529 10.0674C12.3567 10.1235 12.364 10.1792 12.375 10.2345C12.3933 10.4261 12.341 10.6136 12.3567 10.8048C12.3695 10.8805 12.3767 10.957 12.378 11.0339C12.3572 11.2018 12.3572 11.3713 12.378 11.5396C12.3504 11.5766 12.3461 11.6259 12.3665 11.6671C12.3644 11.6735 12.3652 11.6807 12.3699 11.6863C12.3559 11.7271 12.3538 11.7717 12.3644 11.8138V12.0059C12.3941 12.0934 12.3478 12.1916 12.4014 12.2757C12.4035 12.4296 12.4749 12.5741 12.5956 12.6693C12.7065 12.793 12.8723 12.8529 13.0363 12.8282C13.1885 12.8214 13.3393 12.8316 13.4915 12.8282C13.6874 12.8231 13.8842 12.8346 14.0805 12.835C14.1409 12.835 14.2076 12.8023 14.2599 12.8185C14.4261 12.8584 14.6007 12.8418 14.7563 12.7713C14.9157 12.7135 15.0389 12.5843 15.0882 12.4224C15.1405 12.1929 15.1532 11.9557 15.1256 11.722C15.1418 11.5936 15.132 11.464 15.098 11.3395C15.095 11.3331 15.1005 11.3237 15.1022 11.3157C15.1299 11.1975 15.1418 11.076 15.1362 10.9544C15.126 10.736 15.1269 10.5171 15.1388 10.2986C15.1486 9.95098 15.1188 9.60588 15.1396 9.26035Z" fill="#FFB918"/>
<path fill-rule="evenodd" clip-rule="evenodd" d="M11.9224 11.5786L11.8489 11.4957C11.8752 11.4876 11.9033 11.4885 11.9292 11.4987C11.9364 11.5255 11.9343 11.5535 11.9224 11.5786ZM9.44383 12.6628C9.35586 12.6322 9.44383 12.5608 9.41026 12.5183C9.46126 12.5387 9.42641 12.5876 9.44426 12.619C9.44043 12.6326 9.45786 12.6479 9.44383 12.6628ZM9.42345 10.2861C9.3869 10.2623 9.39837 10.2347 9.40177 10.2088C9.40942 10.2088 9.41877 10.2041 9.4226 10.2088C9.45022 10.2292 9.46552 10.2526 9.42345 10.2861ZM9.40304 7.88196L9.42557 7.76338C9.45362 7.78931 9.43959 7.82161 9.45362 7.84626C9.44682 7.87261 9.43577 7.89258 9.40304 7.88196ZM10.4092 6.25075C10.4768 6.20825 10.5592 6.26733 10.6187 6.20825C10.6723 6.25628 10.7326 6.22568 10.7887 6.22228L10.8376 6.2278C10.8542 6.25033 10.8818 6.2618 10.9094 6.25755C10.9502 6.31025 10.9553 6.3825 10.9222 6.4403C10.9022 6.47685 10.906 6.52233 10.9324 6.55463C10.9294 6.6018 10.9081 6.6494 10.9353 6.69615L10.94 6.72123C10.9141 6.8585 10.9128 6.99918 10.9366 7.13688C10.9171 7.24185 10.9103 7.34853 10.9162 7.4552C10.895 7.71403 10.9035 7.97455 10.94 8.23125C10.8588 8.27375 10.7921 8.34388 10.6931 8.2916C10.654 8.27078 10.6306 8.32858 10.5919 8.31285L10.5698 8.28693C10.5698 8.27078 10.5673 8.25463 10.5439 8.26058C10.4942 8.2712 10.4542 8.23338 10.4032 8.23465L10.376 7.9754C10.3926 7.95713 10.3994 7.93205 10.3947 7.90783C10.3735 7.7748 10.3773 7.6405 10.3692 7.50705C10.3692 7.46923 10.3267 7.46455 10.3068 7.44245C10.3068 7.42673 10.3021 7.39995 10.3068 7.3974C10.4075 7.36085 10.3654 7.27798 10.3692 7.2104L10.3607 7.0897L10.3646 7.0404L10.3671 7.01575C10.3811 6.96815 10.3837 6.918 10.3743 6.86955C10.3879 6.77223 10.3952 6.67405 10.396 6.57588C10.3947 6.4675 10.3994 6.3587 10.4092 6.25075ZM11.6677 5.30555C11.6439 5.33913 11.6439 5.33913 11.5971 5.3319C11.6201 5.2894 11.6443 5.3081 11.6677 5.30555ZM11.9184 5.57085C11.8958 5.58148 11.8763 5.65373 11.8504 5.57085C11.872 5.57383 11.8916 5.46078 11.9175 5.5717L11.9184 5.57085ZM11.1114 11.2657C11.1216 11.3082 11.2002 11.3116 11.17 11.3758C11.1564 11.3898 11.1573 11.4153 11.1326 11.4183C11.0999 11.3737 11.1326 11.315 11.1114 11.2657ZM10.8515 8.34858C10.8838 8.31755 10.9051 8.31713 10.925 8.35623C10.8991 8.3762 10.877 8.3626 10.8515 8.34858ZM11.0864 11.0558C11.1535 11.1047 11.1046 11.154 11.0745 11.2029L11.0864 11.0558ZM10.9613 6.6966C10.9634 6.66685 10.9808 6.6405 11.0072 6.6269L11.0106 6.69872L10.9736 6.71827C10.9728 6.70977 10.9681 6.70212 10.9613 6.69702V6.6966ZM10.352 11.4681C10.38 11.3563 10.3885 11.2407 10.377 11.126C10.3983 10.9959 10.3953 10.8629 10.3685 10.7341L10.3639 10.7103L10.3711 10.6139C10.3821 10.4502 10.3821 10.2862 10.3711 10.1226C10.3656 9.94873 10.3855 9.77533 10.3775 9.60108C10.3728 9.50248 10.3775 9.3839 10.5181 9.35542C10.5466 9.36733 10.5636 9.32312 10.5938 9.34013C10.5938 9.35458 10.5861 9.37413 10.6053 9.3788C10.6244 9.38348 10.6367 9.3635 10.6478 9.34905C10.7217 9.39835 10.8076 9.37752 10.8879 9.38688C10.9151 9.5386 10.9219 9.6933 10.9079 9.84673C10.9176 10.0656 10.9155 10.2849 10.9019 10.5034C10.9023 10.5318 10.9049 10.5603 10.9104 10.5884C10.9045 10.6296 10.9066 10.6712 10.9172 10.7116C10.9172 10.7584 10.9172 10.806 10.9117 10.8523C10.9036 10.9041 10.9287 10.9551 10.9746 10.9798C10.9818 11.0291 10.9818 11.0788 10.9746 11.1281C10.9657 11.1103 10.9746 11.0767 10.9287 11.0431C10.9151 11.1519 10.9113 11.2616 10.9172 11.3712C10.9172 11.4116 10.9125 11.452 10.9125 11.4928C10.9125 11.5595 10.8909 11.6326 10.9839 11.6734C10.9142 11.7299 10.9308 11.8349 10.828 11.8434C10.802 11.8434 10.7765 11.8697 10.7583 11.8281C10.7476 11.803 10.7204 11.8081 10.6949 11.809C10.5674 11.8158 10.4323 11.8425 10.335 11.724L10.352 11.4681ZM11.9888 9.15525C11.9917 9.1289 11.9675 9.11275 11.9467 9.09957C11.9186 9.08215 11.8953 9.0592 11.8774 9.032C11.8073 8.9351 11.7669 8.81482 11.656 8.74852C11.6496 8.74512 11.6526 8.72642 11.6505 8.70857C11.7635 8.6903 11.8069 8.61082 11.857 8.51562C11.8885 8.4183 11.9123 8.31927 11.9284 8.21812C11.9832 8.07362 11.9845 7.91425 11.9314 7.7689C11.9216 7.74595 11.9199 7.72087 11.9263 7.69707C11.9356 7.60952 11.939 7.52112 11.9365 7.43272C11.9484 7.38002 11.9259 7.32605 11.88 7.29715C11.8914 7.25465 11.9301 7.23042 11.9191 7.18877C11.9624 7.11652 11.9764 7.03067 11.9586 6.94865C11.9586 6.7999 11.9735 6.65115 11.9586 6.5024C11.9667 6.40465 11.9667 6.30647 11.9586 6.20872C11.973 6.04595 11.973 5.8819 11.9586 5.71912C11.9709 5.6711 11.9709 5.6201 11.9586 5.57207C11.962 5.4484 11.8906 5.3345 11.7775 5.2835C11.6462 5.21295 11.4936 5.19127 11.3474 5.22145C11.316 5.22995 11.2837 5.2325 11.251 5.22995C11.0499 5.20232 10.8464 5.1951 10.6436 5.20912C10.5132 5.20912 10.3818 5.23292 10.2552 5.22315C9.98658 5.20147 9.71968 5.207 9.45151 5.207C9.37671 5.207 9.35461 5.23887 9.34143 5.30517C9.33931 5.38592 9.34228 5.46667 9.34993 5.547C9.32188 5.60437 9.34738 5.66175 9.34993 5.71955C9.34993 5.86617 9.33548 6.01322 9.34696 6.15985C9.33846 6.2984 9.33846 6.43737 9.34696 6.57592C9.33803 6.67367 9.33803 6.77227 9.34696 6.87002C9.33208 6.99327 9.34058 7.11865 9.37288 7.23892L9.35333 7.69452L9.35036 7.92232C9.33633 7.95717 9.34696 7.99755 9.37671 8.02092C9.42091 8.0528 9.43111 8.11442 9.39923 8.15862C9.39498 8.16415 9.39031 8.16925 9.38521 8.17392C9.36821 8.19517 9.37628 8.22067 9.36651 8.24192C9.31848 8.22365 9.27513 8.25382 9.23136 8.2517C9.20501 8.30992 9.15571 8.35965 9.18078 8.42935C9.16888 8.63165 9.18078 8.8348 9.16931 9.03625C9.16251 9.15822 9.25431 9.24195 9.25771 9.35457C9.25771 9.36307 9.27301 9.3737 9.28406 9.3788C9.34058 9.40685 9.34186 9.45827 9.34653 9.51225C9.34186 9.5607 9.34483 9.60957 9.35503 9.65675L9.34908 9.75662C9.33718 9.8786 9.33718 10.001 9.34908 10.1225V10.76L9.33718 11.1064C9.35886 11.2267 9.32358 11.3491 9.34781 11.4694V12.007L9.35121 12.0818L9.34866 12.1307C9.33761 12.1808 9.35503 12.2318 9.33931 12.2828C9.32401 12.3168 9.33633 12.3572 9.36778 12.3767L9.40518 12.4439C9.36778 12.4481 9.33336 12.4503 9.34951 12.4983C9.37501 12.5582 9.38053 12.6245 9.36438 12.6874C9.35503 12.7444 9.37076 12.8026 9.40688 12.8476C9.4787 12.7835 9.5501 12.8277 9.62193 12.8357C9.78385 12.8481 9.94663 12.8489 10.1086 12.8387C10.5263 12.8285 10.9437 12.857 11.3615 12.8175C11.5106 12.8175 11.6551 12.7665 11.772 12.6738C11.792 12.6759 11.8115 12.6636 11.8188 12.6441C11.8651 12.5646 11.9488 12.5055 11.9522 12.4022L12.0143 12.1778V12.154C12.0058 12.0975 12.0368 12.0359 11.9913 11.984C12.024 11.9415 11.976 11.8939 11.9845 11.8752C12.0206 11.7511 12.0304 11.6207 12.0121 11.4927L12.0185 11.0524C12.0185 11.0099 12.0109 10.9713 12.0126 10.9309C12.0359 10.4209 12.0058 9.9109 12.0245 9.39835C12.0249 9.3176 11.9786 9.23982 11.9888 9.15525Z" fill="#FFB918"/>
<path fill-rule="evenodd" clip-rule="evenodd" d="M7.85923 7.43394C7.87325 7.42884 7.88728 7.42374 7.88345 7.40419L7.89535 7.36552C7.90173 7.40972 7.90258 7.45434 7.89833 7.49897H7.88983L7.88388 7.50577L7.85413 7.45519C7.85795 7.44967 7.8588 7.44244 7.85668 7.43564L7.85923 7.43394ZM8.72762 5.34C8.74207 5.35487 8.76119 5.3689 8.74207 5.38802C8.69957 5.43052 8.67407 5.39397 8.64559 5.36422C8.66557 5.33702 8.68172 5.2975 8.72507 5.3417L8.72762 5.34ZM8.84525 6.44498C8.83462 6.44498 8.82655 6.48068 8.8155 6.45008C8.81082 6.42755 8.80955 6.40418 8.8121 6.38123L8.85247 6.40715L8.84525 6.44498ZM7.88154 7.05567C7.88962 7.06672 7.89812 7.07734 7.90747 7.08712C7.90109 7.11177 7.90109 7.13727 7.90747 7.16192C7.89514 7.20442 7.86964 7.19507 7.83394 7.17382C7.86242 7.14024 7.85094 7.09094 7.87899 7.05524L7.88154 7.05567ZM7.88676 6.81942C7.88676 6.802 7.90036 6.7901 7.91736 6.79605C7.92374 6.79605 7.92671 6.8156 7.92671 6.8258C7.92671 6.836 7.92204 6.8496 7.90504 6.84407C7.89314 6.84322 7.88421 6.83302 7.88506 6.82112C7.88506 6.8207 7.88506 6.81985 7.88506 6.81942H7.88676ZM6.05935 6.84062C6.0636 6.88312 6.08315 6.92265 6.0228 6.9371C6.0245 6.9303 6.02323 6.92307 6.0194 6.91755C6.03003 6.89417 6.0194 6.85932 6.05765 6.8402L6.05935 6.84062ZM6.0683 6.64771H6.07085C6.07085 6.67958 6.0683 6.71103 6.06278 6.74248C6.0547 6.77563 6.03685 6.78243 6.02028 6.74546C6.02155 6.70636 6.0105 6.65961 6.0666 6.64728L6.0683 6.64771ZM6.71355 5.32083C6.69315 5.34845 6.67105 5.3544 6.63918 5.3136C6.67063 5.3119 6.69273 5.29788 6.71185 5.32168L6.71355 5.32083ZM6.24574 6.47767C6.19389 6.47427 6.18114 6.44282 6.16754 6.41095C6.19262 6.42667 6.23852 6.41562 6.24489 6.47725L6.24574 6.47767ZM6.03304 7.28185C6.04409 7.31798 6.04324 7.35665 6.03006 7.39193C6.01731 7.34135 5.99819 7.3116 6.03304 7.28185ZM8.90474 8.76675C8.91621 8.51812 8.90474 8.26822 8.90219 8.01875C8.90176 7.9822 8.90304 7.94607 8.90644 7.90952C8.92556 7.78415 8.86606 7.66175 8.89071 7.53807C8.90176 7.47815 8.89921 7.4161 8.88306 7.35745C8.89071 7.25162 8.89071 7.14495 8.88306 7.03912C8.89284 6.8551 8.87074 6.67107 8.89156 6.48662C8.91409 6.43605 8.91026 6.3774 8.88179 6.3298L8.87074 6.27922L8.85714 6.2584L8.83164 6.20782C8.83461 6.17807 8.82739 6.1479 8.81081 6.12282L8.80784 6.08627L8.83249 6.02592C8.84694 6.02592 8.86776 6.02592 8.86776 6.00977C8.86776 5.99362 8.84779 5.99915 8.83461 6.00085C8.88689 5.92095 8.91621 5.8402 8.84056 5.75647C8.83419 5.74925 8.83759 5.73352 8.83589 5.72162C8.84311 5.63025 8.90559 5.53675 8.82526 5.4492C8.82016 5.4203 8.85544 5.4118 8.85756 5.37822C8.80571 5.37567 8.79551 5.31702 8.73431 5.30172C8.63274 5.286 8.52989 5.28217 8.42746 5.28982C8.24471 5.286 8.06196 5.26815 7.87879 5.27537C7.87411 5.27537 7.87029 5.286 7.86561 5.29152C7.87666 5.31447 7.90471 5.29577 7.91916 5.31362L7.89196 5.40457C7.83629 5.3693 7.81759 5.41137 7.80696 5.4509C7.78571 5.5291 7.77721 5.61027 7.78231 5.69145L7.78699 5.8147C7.77679 5.8419 7.78231 5.87292 7.80186 5.8946C7.77339 5.99532 7.76786 6.10072 7.78486 6.204C7.77339 6.26222 7.77594 6.32172 7.79251 6.37867V6.59117C7.78231 6.7072 7.78231 6.82322 7.79251 6.93925C7.78571 7.04507 7.78784 7.15132 7.79974 7.25672C7.82396 7.3226 7.77764 7.38762 7.79974 7.45307C7.79974 7.5011 7.79974 7.5504 7.80271 7.59757C7.79209 7.71997 7.79506 7.84365 7.81079 7.96562C7.80484 8.04595 7.80314 8.1267 7.80611 8.20745C7.78784 8.3919 7.78359 8.57762 7.79336 8.76292C7.79336 8.8339 7.81674 8.90232 7.81631 8.97542C7.80909 9.111 7.80909 9.24657 7.81631 9.38215C7.83459 9.56532 7.82481 9.74807 7.83926 9.92997C7.83289 9.99032 7.83289 10.0507 7.83926 10.111C7.74024 10.2028 7.74279 10.2547 7.84266 10.352C7.87114 10.3728 7.88261 10.4098 7.86986 10.4429C7.83841 10.4761 7.82311 10.4323 7.80186 10.4383C7.77211 10.4468 7.78444 10.4672 7.79294 10.485C7.79294 10.4956 7.79761 10.5024 7.80909 10.5029L7.81376 10.5071C7.78359 10.5394 7.77891 10.587 7.80144 10.6248C7.79209 10.6414 7.78996 10.661 7.79591 10.6792C7.80356 10.7222 7.80696 10.7655 7.80569 10.8093C7.79421 10.8879 7.79634 10.9678 7.81164 11.046C7.78826 11.0694 7.77721 11.1021 7.78104 11.1348C7.78359 11.236 7.78444 11.3376 7.78571 11.4387C7.78486 11.5305 7.77594 11.6219 7.75894 11.712C7.74831 11.814 7.66119 11.8603 7.58596 11.8127C7.54601 11.808 7.51839 11.7983 7.56131 11.7566C7.59276 11.7481 7.59701 11.729 7.58171 11.6984C7.43934 11.7192 7.27784 11.6559 7.16437 11.8021C7.07512 11.7264 6.98162 11.6657 7.00754 11.5348C7.00754 11.5071 7.01094 11.4799 7.01179 11.4523C7.04197 11.3206 7.04536 11.1841 7.02284 11.0511C7.02794 11.0086 7.02879 10.9636 7.03517 10.9194C7.06109 10.8339 7.06577 10.7438 7.04962 10.6559C7.06704 10.6231 7.07597 10.587 7.07554 10.55C7.07554 10.3749 7.07554 10.1998 7.07214 10.0252C7.08149 9.88747 7.06832 9.74892 7.03347 9.61547C7.07087 9.45355 7.08277 9.28695 7.06832 9.12162C7.07894 8.71532 7.07554 8.3086 7.06024 7.9023C7.07087 7.74377 7.06577 7.5844 7.04622 7.4263C7.05046 7.31155 7.04792 7.1968 7.03857 7.08247L7.04324 6.69147C7.05769 6.49555 7.03729 6.30005 7.04324 6.10455C7.05259 6.0153 7.05344 5.92477 7.04579 5.8351C7.04877 5.82745 7.04664 5.81852 7.04069 5.81257L7.03304 5.7569C7.04154 5.74797 7.04112 5.73395 7.03219 5.72502C7.03134 5.72417 7.03049 5.72375 7.02964 5.7229C7.04962 5.7076 7.04622 5.6872 7.04282 5.66637C7.05302 5.59242 7.05302 5.5172 7.04282 5.44325C7.04537 5.43305 7.03942 5.422 7.02922 5.4186C7.01477 5.36037 6.96462 5.3489 6.91787 5.3336C6.88812 5.32467 6.86729 5.3115 6.86602 5.28005C6.93614 5.22012 6.99607 5.3268 7.06619 5.2962C7.06194 5.28217 7.06194 5.27027 7.05769 5.26815C6.90639 5.2282 6.75084 5.2061 6.59444 5.2027C6.51709 5.27665 6.42189 5.21502 6.33562 5.22862C6.25572 5.24052 6.17454 5.23117 6.09932 5.20185C6.05044 5.18187 5.98797 5.23032 5.97479 5.28685C5.95269 5.36122 5.95694 5.4407 5.98627 5.5121C5.96587 5.5682 5.96162 5.62897 5.97437 5.6872C5.95864 5.83382 5.95864 5.98172 5.97437 6.12792C5.97437 6.20612 5.94759 6.28772 5.99434 6.35615C6.04194 6.36932 6.03939 6.30685 6.08232 6.31365C6.08699 6.3587 6.10527 6.40375 6.08232 6.44115C6.03302 6.45177 6.04449 6.3638 5.98372 6.40927C5.96714 6.49342 5.96417 6.57927 5.97437 6.66427C5.96077 6.74715 5.96587 6.83172 5.99009 6.91205C5.97012 6.98132 5.95864 7.05272 5.95567 7.12455C5.97224 7.36127 5.97224 7.59927 5.95567 7.836C5.95269 7.90102 5.95524 7.96605 5.96374 8.03065C5.97394 8.11522 5.97649 8.20065 5.97054 8.28565C5.95822 8.45097 5.96587 8.61672 5.96502 8.78162C5.96502 8.95885 5.97607 9.14075 5.96204 9.31457C5.94589 9.50922 5.98839 9.70132 5.96204 9.89215C5.94164 10.0349 5.98032 10.1735 5.97352 10.3137C5.98117 10.3936 5.98117 10.4744 5.97352 10.5543C5.94717 10.7243 5.93484 10.896 5.93697 11.0681V11.1387L5.93229 11.1884C5.92634 11.2207 5.93229 11.2538 5.94929 11.2819C5.93357 11.3044 5.92804 11.3325 5.93399 11.3592V11.4345C5.92932 11.4417 5.92932 11.451 5.93399 11.4583V11.5067C5.92847 11.6283 5.93229 11.7498 5.94504 11.8709C5.93484 11.9045 5.93484 11.9402 5.94504 11.9734C5.92932 12.0044 5.92592 12.0397 5.93442 12.0732C5.92082 12.117 5.92549 12.1638 5.94717 12.2041C5.95524 12.25 5.94717 12.2993 5.97437 12.341C5.98244 12.412 5.99604 12.4821 6.01432 12.5514C6.02027 12.6138 6.06192 12.6665 6.12099 12.6869C6.16647 12.7452 6.21704 12.8166 6.28759 12.8217C6.43804 12.8489 6.59189 12.8514 6.74319 12.8289C6.77294 12.8153 6.80524 12.8089 6.83797 12.8106C7.00542 12.8374 7.17584 12.8382 7.34371 12.8132C7.48184 12.794 7.62166 12.7953 7.75979 12.8166C7.83926 12.8344 7.92171 12.8319 7.99991 12.8085C8.03221 12.7911 8.06961 12.7855 8.10531 12.7932C8.28551 12.8595 8.48739 12.8187 8.62849 12.6882C8.63444 12.6899 8.64039 12.6869 8.64294 12.6814C8.65739 12.6814 8.66334 12.6708 8.66674 12.658C8.68884 12.65 8.69479 12.63 8.70414 12.6113C8.75811 12.5573 8.79509 12.4885 8.81039 12.4132C8.83801 12.3418 8.84949 12.2649 8.84354 12.1884C8.84141 12.1162 8.84609 12.0439 8.85841 11.9725C8.88349 11.794 8.88349 11.613 8.85841 11.4345L8.86606 11.1178C8.87669 11.1034 8.88094 11.0851 8.87839 11.0673L8.88264 11.0435C8.89539 11.001 8.86266 10.9636 8.86436 10.9215L8.86819 10.8977C8.88349 10.825 8.88774 10.7502 8.88094 10.6758C8.90176 10.6448 8.86266 10.6248 8.86691 10.5972C8.89326 10.3962 8.89964 10.193 8.88689 9.99075C8.90644 9.96992 8.91579 9.94145 8.91239 9.91297C8.91239 9.71237 8.91239 9.51177 8.92089 9.31117C8.92259 9.1348 8.89581 8.95205 8.90474 8.76675Z" fill="#FFB918"/>
</svg>
