<svg width="18" height="18" viewBox="0 0 18 18" fill="none" xmlns="http://www.w3.org/2000/svg">
<rect width="18" height="18" rx="4" fill="#222222"/>
<path d="M11.5631 9.46665C11.1121 9.1918 11.2523 9.38419 11.4448 9.56559C12.2506 10.3242 12.7841 11.069 12.9821 11.7121C13.1113 12.1354 12.9821 12.391 12.8033 12.0227C12.5739 11.5771 12.2633 11.1782 11.8876 10.8464C11.6538 10.6595 11.6593 10.7502 11.7721 10.8986C12.2313 11.506 12.5036 12.1299 12.2286 12.6054C11.7748 13.3887 9.97357 13.1908 8.19982 12.1656C5.93932 10.8629 4.54507 9.07911 5.05382 8.16663C5.27657 7.7681 5.87882 7.61694 6.59657 7.66366C6.75057 7.66366 6.74232 7.62793 6.59657 7.5922C5.75232 7.38332 4.74582 7.57846 4.38832 8.20785C3.73657 9.33197 5.25457 11.429 7.78182 12.8802C8.43818 13.2607 9.13096 13.5747 9.84982 13.8174C10.3503 13.9851 10.2788 14.1857 9.42082 14.0208C8.31003 13.7645 7.24777 13.3311 6.27482 12.7373C5.96407 12.5559 5.92282 12.6274 6.15382 12.8527C6.48922 13.167 6.8581 13.4435 7.25382 13.6773C9.76457 15.1724 12.8941 15.56 13.7933 14.0016C14.6183 12.6054 13.1718 10.4506 11.5631 9.46665Z" fill="#B3ED17"/>
<path d="M3.5 4L4.853 6.34443H7.64975V10.9563C8.3565 11.528 9.53075 12.1299 10.3283 12.1822V6.34443H13.1498L14.5028 4H3.5Z" fill="#B3ED17"/>
</svg>
