<svg width="24" height="24" viewBox="0 0 24 24" fill="none" xmlns="http://www.w3.org/2000/svg">
<rect width="24" height="24" rx="4" fill="#222222"/>
<path fill-rule="evenodd" clip-rule="evenodd" d="M5 5V15.7921L7.33326 13.4588V7.33326H13.507L15.8395 5H5Z" fill="#B1B1B1"/>
<path fill-rule="evenodd" clip-rule="evenodd" d="M16.6662 10.5411V16.6666H10.4924L8.15918 18.9999H16.6662H18.9513H19.0003V8.20703L16.6662 10.5411Z" fill="#B1B1B1"/>
<path fill-rule="evenodd" clip-rule="evenodd" d="M17.3841 5L5 17.3834V18.9995H6.61539L18.9995 6.61539V5H17.3841Z" fill="white"/>
<path d="M4 1H20V-1H4V1ZM23 4V20H25V4H23ZM20 23H4V25H20V23ZM1 20V4H-1V20H1ZM4 23C2.34315 23 1 21.6569 1 20H-1C-1 22.7614 1.23858 25 4 25V23ZM23 20C23 21.6569 21.6569 23 20 23V25C22.7614 25 25 22.7614 25 20H23ZM20 1C21.6569 1 23 2.34315 23 4H25C25 1.23858 22.7614 -1 20 -1V1ZM4 -1C1.23858 -1 -1 1.23858 -1 4H1C1 2.34315 2.34315 1 4 1V-1Z" fill="black"/>
</svg>
