<svg width="24" height="24" viewBox="0 0 24 24" fill="none" xmlns="http://www.w3.org/2000/svg">
<rect width="24" height="24" rx="4" fill="#222222"/>
<path fill-rule="evenodd" clip-rule="evenodd" d="M15.1111 7.33333L17.4444 5H7.33344H5.00011H5V7.33333H5.00011V17.4444L7.33344 15.1111V7.33333H15.1111Z" fill="white"/>
<rect x="10.0557" y="10.0557" width="3.88889" height="3.88889" fill="#B1B1B1"/>
<path fill-rule="evenodd" clip-rule="evenodd" d="M8.88889 16.6667L6.55556 19H16.6666H18.9999H19V16.6667H18.9999V6.55556L16.6666 8.88889V16.6667H8.88889Z" fill="#B1B1B1"/>
<path d="M4 1H20V-1H4V1ZM23 4V20H25V4H23ZM20 23H4V25H20V23ZM1 20V4H-1V20H1ZM4 23C2.34315 23 1 21.6569 1 20H-1C-1 22.7614 1.23858 25 4 25V23ZM23 20C23 21.6569 21.6569 23 20 23V25C22.7614 25 25 22.7614 25 20H23ZM20 1C21.6569 1 23 2.34315 23 4H25C25 1.23858 22.7614 -1 20 -1V1ZM4 -1C1.23858 -1 -1 1.23858 -1 4H1C1 2.34315 2.34315 1 4 1V-1Z" fill="black"/>
</svg>
